<svg width="34" height="20" viewBox="0 0 34 20" fill="none" xmlns="http://www.w3.org/2000/svg">
<path d="M1.70459 8.89374H29.5518L24.4619 3.05134C24.2239 2.77769 24.1094 2.42489 24.1435 2.07056C24.1777 1.71623 24.3578 1.38939 24.6442 1.16194C24.9305 0.934487 25.2997 0.82506 25.6704 0.857729C26.0412 0.890397 26.3832 1.06249 26.6212 1.33614L33.6321 9.37614C33.6793 9.44009 33.7214 9.50727 33.7583 9.57714C33.7583 9.64414 33.7583 9.68434 33.8564 9.75134C33.92 9.90498 33.9533 10.0685 33.9546 10.2337C33.9533 10.3989 33.92 10.5625 33.8564 10.7161C33.8564 10.7831 33.8564 10.8233 33.7583 10.8903C33.7214 10.9602 33.6793 11.0274 33.6321 11.0913L26.6212 19.1313C26.4894 19.2826 26.3243 19.4042 26.1377 19.4876C25.9511 19.571 25.7475 19.6141 25.5415 19.6137C25.2139 19.6143 24.8964 19.5053 24.6442 19.3055C24.5022 19.193 24.3848 19.0549 24.2988 18.899C24.2128 18.7431 24.1598 18.5725 24.1428 18.397C24.1259 18.2215 24.1454 18.0445 24.2001 17.8762C24.2549 17.7079 24.3438 17.5515 24.4619 17.4161L29.5518 11.5737H1.70459C1.33271 11.5737 0.976063 11.4326 0.713104 11.1813C0.450146 10.93 0.302418 10.5891 0.302418 10.2337C0.302418 9.87835 0.450146 9.53751 0.713104 9.28621C0.976063 9.03491 1.33271 8.89374 1.70459 8.89374Z" fill="white"/>
</svg>
