<svg width="191" height="190" viewBox="0 0 191 190" fill="none" xmlns="http://www.w3.org/2000/svg">
<g clip-path="url(#clip0)">
<path d="M39.8184 103.13C45.5153 103.514 50.7381 108.272 53.8241 112.757C57.0115 117.157 59.2176 122.038 63.0132 125.925C66.979 130.015 71.8733 133.149 77.2378 135.196C92.9422 141.492 109.306 134.788 120.975 123.746C135.413 110.026 140.95 91.7073 134.822 72.5038C128.556 52.7252 105.544 37.5518 84.6626 42.1855C74.6031 44.4405 65.3224 50.7052 58.726 58.5101C52.1296 66.3149 47.5039 75.2243 37.4161 78.8856C36.9255 79.1262 36.2077 77.6572 36.7834 77.5177C48.3269 73.3212 52.774 62.1428 60.8949 54.0902C67.6657 47.5209 76.3059 42.1416 85.6559 40.4845C103.103 37.5348 122.672 48.0052 131.614 62.9369C140.556 77.8686 140.975 97.9078 131.796 112.727C123.68 126.133 108.93 138.044 92.865 139.137C82.9351 139.9 72.952 135.869 65.5193 129.517C61.7603 126.29 58.8974 122.481 56.3547 118.229C52.8226 112.392 47.7252 105.108 40.2483 104.668C39.7901 104.536 39.2589 103.083 39.8184 103.13Z" fill="white"/>
<path d="M39.9563 103.705C47.9765 104.378 51.3828 108.42 56.0178 114.538C62.1695 122.662 68.1304 129.736 77.789 133.176C85.8014 136.103 92.9742 136.799 101.392 135.063C105.219 134.257 109.063 133.265 112.242 131.278C116.722 128.367 121.012 124.407 124.64 120.485C131.593 112.898 135.797 104.517 136.774 94.3621C137.6 84.8521 135.41 75.4645 131.375 66.7674C123.406 49.2877 102.762 32.8104 82.6391 40.607C73.3136 44.1444 66.4862 53.5264 59.614 60.1812C52.2188 67.4494 48.9515 76.9424 37.858 79.2044C37.2822 79.3439 36.751 77.8906 37.2254 77.8365C48.7933 75.5203 52.1416 65.095 59.995 57.9592C61.8357 56.2353 63.1168 54.4646 64.8724 52.6397C67.0334 50.4732 69.466 48.4234 71.627 46.2568C75.1057 42.98 78.8236 40.1928 83.4621 38.7038C100.577 33.0966 119.387 44.7243 128.207 58.8944C136.431 72.3571 141.149 90.503 135.599 105.721C132.263 114.927 125.309 122.514 118.011 128.663C114.058 131.994 110.778 134.067 105.767 135.524C101.635 136.586 97.4182 137.547 93.0959 137.56C84.3337 137.858 75.1171 134.736 68.248 129.464C64.3715 126.509 61.2207 122.77 58.2726 118.86C56.0747 116.046 54.0796 113.061 51.7641 110.518C48.2403 106.748 45.4222 105.666 40.4875 105.158C39.8266 105.196 39.3967 103.658 39.9563 103.705Z" fill="white"/>
<path d="M39.9239 104.078C46.8495 106.537 51.9872 111.194 56.2816 116.908C59.9799 121.914 64.1322 126.019 69.0631 129.814C72.7531 132.753 76.7513 136.47 80.7778 138.78C97.6137 148.27 114.642 133.921 124.421 120.843C136.223 105.022 137.248 85.6676 128.127 68.467C120.304 53.6292 107.263 39.3866 89.0173 41.7997C78.09 43.2304 68.2701 50.2952 60.7573 57.8353C53.2607 65.1889 47.6904 75.2399 37.9108 79.6784C37.4202 79.919 36.7876 78.5511 37.2782 78.3105C47.9376 73.4763 54.1282 61.6929 62.6911 53.9592C69.7336 47.5066 78.39 41.9408 87.9103 40.4858C104.851 37.9632 117.287 49.4316 125.714 62.7235C134.396 76.3186 138.566 93.1976 132.611 108.757C128.97 118.219 122.65 127.174 114.946 133.665C108.966 138.704 100.934 143.571 92.8653 143.457C82.915 143.374 76.3621 136.625 69.051 131.034C64.5622 127.558 60.4788 123.74 57.0197 119.224C52.3847 113.106 47.7538 108.022 40.1835 105.414C39.7253 105.282 39.3805 103.844 39.9239 104.078Z" fill="white"/>
<path d="M39.3156 104.59C39.3156 104.59 39.8052 91.3892 39.7321 90.0682C39.5697 87.6128 39.3059 85.2428 38.7705 82.756C38.2513 80.0828 37.8738 74.698 34.1679 76.2652C32.5096 76.9713 32.5096 76.9713 32.2786 78.5485C32.1286 79.1933 31.4636 78.1983 31.4798 78.0119C31.0661 76.2867 30.2993 71.057 26.8692 73.7744C26.1194 76.9985 24.1366 77.1138 20.8034 74.3923C20.0291 75.736 19.713 77.2121 19.6685 78.805C19.6888 79.6519 18.7521 78.5402 18.6831 78.2527C17.9898 78.6641 17.2803 79.2619 16.587 79.6733C16.2181 80.6754 16.1209 81.7942 16.0236 82.9131C15.8088 84.3038 15.7968 85.5237 15.6833 86.829C15.6268 89.6417 15.5703 92.4544 15.4286 95.166C15.3355 97.3183 14.5939 102.609 15.8551 104.312C15.9078 104.786 15.8754 105.159 16.0295 105.547C17.3837 105.097 18.738 104.647 20.1084 104.011C20.0071 104.097 20.2908 102.993 20.1732 103.265C20.2218 102.706 20.8179 103.413 20.9882 103.615C21.4547 105.815 23.2023 106.243 26.1135 105.173C26.2959 104.155 26.5796 103.052 26.762 102.034C27.0175 102.337 27.3743 102.555 27.715 102.959C26.3531 109.982 34.2431 103.507 33.6835 103.46C33.8821 102.256 34.2227 102.66 34.7744 104.96C36.4775 106.982 37.7993 106.905 38.756 104.543C38.6505 103.595 39.6197 104.334 39.6562 104.994C40.0051 107.465 38.3996 108.646 35.8693 107.494C33.4243 106.444 33.566 103.732 33.7766 101.308C33.8576 100.375 34.693 101.573 34.7619 101.86C35.6911 109.545 25.2664 109.516 26.6769 101.933C26.8268 101.288 27.6622 102.485 27.6298 102.858C27.4192 105.282 26.9775 109.283 23.5674 108.528C21.8198 108.099 22.3428 107.486 21.2196 106.358C19.8247 105.114 20.96 105.022 20.96 105.022C20.96 105.022 20.4777 107.329 20.4615 107.516C19.4196 109.776 17.7085 110.008 16.0905 108.088C13.4507 104.955 14.3381 97.9859 14.3743 94.3262C14.4794 90.9541 14.4832 87.6674 14.6735 84.3963C14.7504 82.4305 14.819 78.3979 16.1691 76.9147C16.8948 76.1304 16.9435 75.571 18.1315 75.9524C18.4032 76.0691 19.5954 77.484 19.4089 77.4683C17.8154 77.4285 19.4368 71.7419 22.1494 71.8756C25.235 72.0407 25.5395 76.1046 25.3612 78.1558C25.3816 79.0027 24.4449 77.891 24.3921 77.417C24.4121 73.9438 27.3067 68.7397 30.6279 72.6811C31.4794 73.6917 31.3377 76.4034 31.95 76.9243C31.2526 76.3023 31.7511 73.8084 33.4784 73.3899C37.5776 72.7009 39.1515 80.534 39.6017 82.9197C41.0215 90.3643 40.8153 98.1419 40.0658 105.686C40.0496 105.873 39.932 106.145 39.6604 106.028C39.5752 105.927 39.3887 105.911 39.3035 105.81C39.117 105.794 38.6709 104.442 39.3156 104.59Z" fill="white"/>
<path d="M35.1208 77.1902C35.6114 76.9496 35.8345 77.6257 36.0048 77.8279C37.7731 83.4234 43.54 97.0555 38.2044 102.243C38.103 102.328 38.0017 102.413 37.9165 102.312C35.0984 101.231 35.0291 96.623 34.7816 94.0665C34.2744 90.1734 33.7104 84.7729 35.0684 81.0363C35.0846 80.8498 35.186 80.7644 35.4576 80.8811C38.073 82.1337 38.6047 87.9072 38.8684 90.2772C39.1808 92.0878 40.6453 102.26 37.8517 103.058C32.5685 104.399 32.7126 81.1203 33.1584 78.1525C33.3084 77.5076 33.8193 78.114 33.9896 78.3161C35.5793 81.6427 35.7662 85.9785 36.0179 89.5684C36.2006 92.8707 36.7929 96.8649 36.0431 100.089C35.8931 100.734 35.228 99.7389 35.2442 99.5524C34.3478 95.8145 34.0272 91.937 33.5039 88.2304C33.1712 85.5728 32.4978 82.511 32.9274 79.7296C32.9922 78.9838 33.8276 80.1808 33.8966 80.4684C34.9026 86.1877 35.7021 95.3646 32.7061 100.654C32.5885 100.926 32.1627 100.421 32.0776 100.32C30.8164 98.6173 30.9419 96.0921 30.8323 94.1107C30.7468 89.6895 30.3044 85.0505 30.965 80.6919C31.0298 79.946 31.7638 81.2285 31.9341 81.4307C33.4025 88.3158 31.7042 95.9682 30.5451 102.821C30.4803 103.567 29.7463 102.284 29.576 102.082C29.1095 99.8828 29.1336 97.443 29.1416 95.1897C29.186 93.5968 29.1291 92.0894 29.1736 90.4966C29.2222 89.9372 28.9623 84.2804 29.0636 84.195C29.688 83.4961 29.6115 89.782 29.5467 90.5279C29.3401 93.9854 28.6592 97.4971 29.0285 100.815C28.6716 100.597 28.4162 100.294 28.0593 100.076C29.6484 94.7626 29.4898 89.0205 31.0788 83.7068C31.3301 82.9765 31.979 84.158 32.0479 84.4455C33.1391 90.2659 31.3839 96.4109 32.5602 102.332C32.3048 102.029 31.9479 101.811 31.6925 101.508C33.517 99.9709 33.0867 94.112 33.2811 91.8744C33.4756 89.6367 33.3132 87.1813 33.6942 84.9593C33.8441 84.3145 34.493 85.496 34.6633 85.6981C36.01 91.8217 34.713 98.0991 35.6866 104.191C35.3297 103.974 35.0743 103.67 34.7174 103.453C36.424 97.867 34.7205 91.5256 35.5959 85.7764C35.7459 85.1315 36.4961 86.2276 36.565 86.5151C36.845 88.6986 36.837 90.9519 36.9305 93.1198C37.0036 94.4408 36.9915 95.6607 37.0646 96.9816C37.0322 97.3546 36.8988 102.133 36.473 101.628C35.962 101.021 36.7605 97.2379 36.7402 96.3909C36.8008 94.6116 36.7764 92.7312 37.0236 90.9676C37.0722 90.4082 37.7534 91.2167 37.8386 91.3177C39.7689 95.0485 38.9949 100.712 39.0277 104.66C39.048 105.507 38.1113 104.395 38.0423 104.107C37.8679 102.872 36.785 99.1182 38.273 98.21C38.4757 98.0392 38.9015 98.5445 38.8853 98.731C39.9641 101.451 40.5564 105.445 38.1075 107.682C38.0061 107.767 38.0062 107.767 37.8196 107.751C35.5449 106.903 35.8121 101.666 37.2473 100.284C37.45 100.113 37.8069 100.331 37.8758 100.618C39.2059 102.608 39.2549 106.369 36.664 106.997C36.4775 106.981 36.291 106.966 36.2058 106.865C35.1677 105.838 33.8538 103.662 34.6443 102.132C35.5363 100.516 37.3528 101.232 37.6814 102.856C37.9734 103.82 37.7424 105.397 36.2299 104.425C36.2299 104.425 37.2752 94.5575 37.2022 93.2366C36.9667 89.4602 36.7474 85.4973 35.9362 81.8605C36.293 82.0782 36.5485 82.3814 36.9053 82.5992C37.189 81.496 36.314 91.5655 37.5342 87.2538C37.9355 85.8788 37.761 84.6432 37.5014 83.3066C37.3432 81.8846 36.4344 75.0465 36.897 80.5324C37.1122 83.4618 37.1366 85.3422 36.6457 81.2626C36.6619 81.0761 36.0858 76.8955 35.3925 77.3069C34.8005 77.6329 35.2225 81.4249 35.3077 81.526C34.9508 81.3082 34.6954 81.005 34.3385 80.7872C35.2953 78.4257 33.9531 77.6557 33.5194 79.4037C33.1787 78.9994 32.9233 78.6962 32.684 78.2066C32.8178 77.7482 32.9515 77.2899 33.0853 76.8315C33.4259 77.2358 33.6814 77.5389 33.9207 78.0286C31.0502 80.793 31.2939 86.6362 31.647 90.1407C31.7525 91.0887 30.7833 90.3499 30.7468 89.6895C30.341 85.711 29.9269 79.6656 33.1015 76.645C33.6083 76.218 33.9693 77.4692 33.9369 77.8421C33.7545 78.8599 33.8721 78.588 33.418 79.4891C33.1829 80.0328 32.5502 78.6649 32.5826 78.292C33.8472 72.3875 36.6009 78.5353 35.1901 81.7978C34.9388 82.5281 34.2899 81.3466 34.221 81.0591C33.8924 79.435 33.7948 76.2337 35.0274 75.0223C35.1287 74.9369 35.3153 74.9525 35.4004 75.0536C37.9672 76.8656 37.9717 82.2191 37.3556 84.9849C37.2218 85.4432 36.796 84.9379 36.7109 84.8369C35.2956 82.7459 35.9076 78.9467 36.2885 76.7247C36.4223 76.2663 36.8481 76.7716 36.9332 76.8727C38.5554 79.8263 40.1292 87.6595 38.4468 90.8053C38.3454 90.8907 38.3454 90.8907 38.3454 90.8907C35.3611 90.6402 35.7052 83.4376 36.0699 81.4021C36.2199 80.7573 36.9701 81.8533 37.0391 82.1409C37.4204 84.239 39.8672 106.89 35.4514 104.735C35.0946 104.517 34.7702 103.927 34.9039 103.468C35.0215 103.196 35.0377 103.01 35.1553 102.738C35.1715 102.552 35.358 102.567 35.5445 102.583C37.7707 103.991 38.5491 103.68 37.7786 101.737C37.7624 101.924 37.6448 102.196 37.6286 102.382C36.9232 104.013 37.7345 107.65 38.7884 104.17C38.6705 100.122 38.7191 99.5623 38.8491 102.391C38.9181 102.678 38.987 102.966 38.9546 103.339C38.0627 104.954 38.3219 101.971 38.2002 101.209C37.9041 99.2121 37.8269 96.8578 37.8186 94.7909C37.7617 93.2835 37.8265 92.5376 37.8348 94.6045C37.8634 97.5182 37.6042 100.502 37.4462 103.4C37.4666 104.247 36.5299 103.135 36.4609 102.848C36.0996 97.2763 36.314 91.5655 35.5635 86.1493C35.9203 86.3671 36.1758 86.6703 36.5326 86.888C35.6573 92.6373 37.3607 98.9787 35.6542 104.564C35.6055 105.124 34.9567 103.942 34.7864 103.74C33.8128 97.6479 35.0246 91.2694 33.7631 85.2469C34.12 85.4646 34.3754 85.7678 34.7323 85.9856C34.0351 89.6837 34.2382 93.833 33.8128 97.6479C33.5818 99.225 33.8455 101.595 32.613 102.806C32.2075 103.148 31.8142 102.27 31.7452 101.982C30.654 96.1619 32.2227 90.0012 31.2329 84.0953C31.5897 84.3131 31.8452 84.6163 32.202 84.8341C30.613 90.1478 30.7716 95.89 29.1826 101.204C28.9312 101.934 28.2824 100.752 28.2135 100.465C27.4953 94.6758 28.6909 88.4839 29.0919 82.7887C29.1729 81.8563 30.0083 83.0534 30.061 83.5274C30.0007 89.6269 29.385 96.7127 30.6465 102.735C30.2896 102.518 30.0342 102.214 29.6773 101.997C30.804 95.517 32.4172 87.7635 30.9002 81.4378C31.257 81.6556 31.5125 81.9588 31.8693 82.1765C31.4398 84.958 31.6711 87.7009 31.6145 90.5136C31.6876 91.8346 31.5742 93.1399 31.6473 94.4608C31.6676 95.3078 31.1571 99.0215 32.2355 97.4216C34.814 93.6935 33.5563 84.3843 32.7774 80.3745C33.1343 80.5922 33.3897 80.8954 33.7466 81.1132C33.1184 85.0988 34.392 89.9015 34.9843 93.8956C35.1222 94.4707 35.1753 99.2649 35.1994 96.8251C35.2722 93.8259 35.2597 90.7256 34.9595 87.6952C34.8864 86.3742 34.8009 81.953 33.8479 81.0278C34.1034 81.331 33.8969 84.7885 33.9172 85.6355C33.9783 88.1763 34.242 90.5463 34.4895 93.1028C34.7167 94.8124 34.5995 99.4044 35.9093 100.547C39.1087 103.727 38.3578 93.991 38.2361 93.2294C37.9886 90.6729 37.5383 88.2873 36.9015 85.8859C36.3175 83.9586 36.2282 82.8241 35.5756 84.9294C35.0567 86.5763 35.4745 89.3349 35.4139 91.1142C35.3856 92.5206 35.3535 97.2137 36.2741 98.5118C39.7169 103.215 39.1566 94.5276 38.9822 93.292C38.8929 92.1576 35.4332 79.0008 35.8224 78.8456C35.2628 78.7987 34.545 77.3297 35.1208 77.1902Z" fill="white"/>
<path d="M32.4088 81.3769C37.5341 82.934 32.1871 97.9813 29.1097 99.8831C28.907 100.054 28.5664 99.6497 28.4812 99.5486C27.2525 97.4733 26.7529 87.0067 30.374 89.6585C34.0113 92.1238 34.5556 105.318 29.1508 105.897C28.9642 105.881 28.7939 105.679 28.7088 105.578C25.9958 101.124 32.8356 94.8426 33.9268 100.663C34.949 106.196 27.0301 105.437 29.9654 101.927C33.221 97.9742 35.6182 108.224 30.0671 106.162C24.4147 104.185 28.0872 90.0301 32.4053 88.9838C32.6932 88.914 32.8635 89.1161 33.0338 89.3183C35.2155 92.3188 33.1035 98.2461 29.7179 99.3707C29.6165 99.4561 29.5314 99.355 29.3449 99.3393C26.7253 97.0534 27.0818 92.951 27.3573 89.781C27.5476 86.5099 27.7093 80.3251 30.888 78.3379C31.0907 78.1671 31.5165 78.6724 31.5003 78.8589C32.9521 81.6103 29.1008 89.176 26.5743 84.7378C25.1063 82.1728 26.4802 73.9296 30.5109 77.2732C32.7897 79.1549 32.0402 86.6992 28.4923 85.3683C25.3173 84.0688 24.9232 74.5503 28.7712 74.5915C29.059 74.5217 29.2132 74.9103 29.3835 75.1124C30.5798 77.5607 28.8125 84.9256 25.7469 81.2874C23.7031 78.8619 27.3276 73.9068 28.9336 77.0469C29.1039 77.249 29.4121 78.0262 28.9377 78.0803C25.8358 78.1017 25.5111 73.1909 28.6333 74.0164C29.0063 74.0477 29.5862 74.9416 29.2659 75.3843C28.5402 76.1686 27.7779 76.2925 26.7439 76.2996C26.2696 76.3537 25.8072 75.1879 26.2127 74.8463C29.3549 72.1986 32.6598 76.3265 31.622 79.6204C30.1992 84.1028 27.2308 79.3458 26.967 76.9758C26.7884 74.7068 29.1439 70.3026 31.1066 73.6605C32.968 77.1037 29.0715 77.6219 27.2304 75.0256C27.0601 74.8235 26.7843 73.6734 27.4128 74.0079C30.9811 76.1857 28.2771 82.4389 26.473 84.8232C26.1527 85.2659 25.7593 84.3876 25.589 84.1855C25.0739 82.5457 25.7707 74.5275 28.7267 76.1843C29.6269 76.6355 29.3635 78.5856 29.2987 79.3315C29.0435 83.3484 27.7424 88.5924 26.2992 92.2279C25.9627 92.8571 25.399 91.7767 25.3301 91.4892C24.7905 87.969 24.9563 82.8176 26.0955 79.4383C26.2292 78.98 26.7564 79.3999 26.7402 79.5863C28.2082 82.1514 27.7138 85.6786 27.4707 88.4757C27.1952 91.6457 27.2525 97.4733 25.0753 99.8262C24.6699 100.168 24.3616 99.3907 24.1913 99.1886C23.518 96.1268 23.98 92.9724 24.2554 89.8024C24.4175 87.9377 24.101 85.0937 25.1794 83.4937C25.3983 83.1364 25.8079 83.8282 25.8931 83.9293C28.525 89.3155 27.731 98.4526 24.9215 103.758C24.8202 103.843 24.8202 103.843 24.8202 103.843C21.0371 103.056 23.1525 89.522 24.5188 87.8523C24.7378 87.495 25.2487 88.1014 25.2325 88.2878C27.2521 93.1531 26.7053 100.527 25.8948 105.53C25.7772 105.802 25.5907 105.786 25.4204 105.584C22.6671 103.756 24.9857 94.3716 25.9262 92.1966C26.0599 91.7383 26.5019 92.0571 26.5709 92.3446C28.4647 95.4149 28.5871 104.817 25.1205 106.874C25.0191 106.959 24.7474 106.842 24.6623 106.741C21.8035 103.966 23.2301 96.1965 25.2532 93.4549C25.4721 93.0976 25.8127 93.5019 25.8817 93.7894C28.1323 97.0775 28.0885 107.311 24.2489 109.336C24.1475 109.422 23.8759 109.305 23.7907 109.204C21.0171 106.529 20.9881 99.2954 22.8571 96.1652C23.1774 95.7225 23.6559 96.7018 23.7411 96.8029C24.7347 99.422 24.7188 103.929 22.8457 106.025C22.5254 106.468 22.0469 105.489 21.9779 105.201C21.8197 103.779 22.2899 102.692 23.3197 101.651C23.5225 101.48 23.6928 101.682 23.7779 101.784C24.9863 103.012 25.0636 105.366 23.3201 105.971C23.0322 106.041 22.8619 105.839 22.6916 105.637C21.6007 104.136 21.3208 101.953 22.6709 100.47C22.7723 100.384 22.8736 100.299 22.9588 100.4C25.116 101.52 26.7829 107.201 24.7719 108.723C24.6705 108.808 24.5854 108.707 24.5854 108.707C22.8702 107.906 22.0307 105.675 22.2779 103.912C22.2941 103.725 22.3103 103.539 22.4968 103.554C22.6833 103.57 22.8698 103.586 22.955 103.687C23.328 103.718 23.4821 104.107 23.5511 104.394C25.0801 109.5 16.2972 104.631 21.2356 101.852C21.4384 101.681 21.779 102.085 21.8642 102.186C22.0345 102.388 22.1196 102.49 22.1886 102.777C22.3589 102.979 22.5982 103.469 22.2941 103.725C21.9576 104.354 22.0589 104.269 21.398 104.307C21.2115 104.292 21.0412 104.09 20.956 103.988C20.222 102.706 20.1327 101.571 20.9922 100.329C21.2112 99.9715 21.7221 100.578 21.7059 100.764C22.2534 102.031 21.9696 103.134 21.1264 104.191C20.8061 104.633 20.4127 103.755 20.2424 103.553C19.7597 101.54 20.7326 98.9922 21.3691 97.0734C21.7097 97.4776 21.9652 97.7808 22.2044 98.2705C21.649 99.2569 21.3005 101.106 20.1327 101.571C19.7435 101.727 19.3339 101.035 19.3663 100.662C19.2243 99.0534 19.658 97.3055 20.6189 95.9774C20.7202 95.892 20.8216 95.8065 20.9067 95.9076C23.2505 97.0435 23.7252 101.309 21.8845 103.033C21.7831 103.119 21.6818 103.204 21.5966 103.103C19.5408 101.897 19.3419 98.7816 19.9945 96.6763C20.1121 96.4044 20.3837 96.5211 20.554 96.7233C22.4437 98.7602 21.4915 106.475 18.5761 106.512C18.2883 106.582 17.9638 105.991 17.98 105.805C17.396 103.878 18.0607 100.552 19.5811 99.2712C20.0879 98.8442 20.4651 99.9089 20.4327 100.282C20.4775 103.009 19.4925 106.777 17.4329 108.858C17.0274 109.2 16.7192 108.423 16.5489 108.22C15.827 105.718 17.1119 100.661 19.2243 99.0534C19.5284 98.7972 19.9217 99.6755 20.0069 99.7765C20.7613 101.906 20.3886 106.195 17.6963 106.908C17.307 107.063 16.9988 106.286 16.9299 105.998C16.3093 103.411 16.8523 99.3239 18.4537 97.1105C18.6727 96.7532 19.0822 97.445 19.1674 97.546C20.0921 99.8776 19.2084 103.56 17.6394 105.401C17.4205 105.758 16.9095 105.152 16.9257 104.965C15.3522 101.452 16.5196 96.6664 17.3019 93.0693C17.3505 92.5099 18.0317 93.3184 18.1169 93.4195C19.7228 96.5596 18.2393 102.821 17.4894 106.045C17.3395 106.69 16.6744 105.695 16.6906 105.509C15.1616 100.403 16.3572 94.211 17.184 89.0211C17.2488 88.2752 18.0679 89.6588 18.1369 89.9463C18.2872 93.6216 18.7133 98.4471 17.2012 101.795C16.9661 102.339 16.4551 101.732 16.3862 101.445C14.983 98.134 16.2193 93.6359 16.5272 90.093C16.6406 88.7877 16.2345 80.489 18.0469 80.1715C18.3348 80.1018 18.5051 80.3039 18.6754 80.506C20.1434 83.0711 20.1234 86.5442 20.4399 89.3883C20.8295 93.5532 20.5582 97.7567 19.7435 101.727C19.5935 102.371 18.9285 101.376 18.9447 101.19C18.1538 98.4001 18.8185 95.0749 19.0778 92.0914C19.3329 88.0745 19.215 84.0262 19.8431 80.0406C19.9931 79.3957 20.6582 80.3907 20.642 80.5772C22.2603 86.8175 21.1539 94.144 21.5356 100.562C21.2801 100.259 20.9233 100.041 20.5827 99.637C21.5677 95.8692 21.9079 91.9533 22.2482 88.0374C22.3778 86.5456 22.4223 84.9528 22.552 83.461C22.5682 83.2746 22.3975 78.7523 23.5573 80.5401C24.4616 82.0247 22.8605 88.5583 22.6985 90.4231C22.5406 93.3212 22.3827 96.2193 22.4964 99.2341C22.241 98.931 21.8841 98.7132 21.5435 98.3089C22.5123 94.7275 22.8364 90.9981 23.1605 87.2687C23.2577 86.1499 22.9246 79.1722 23.5328 78.6598C24.2423 78.0619 24.121 81.6205 24.0886 81.9934C23.9427 83.6717 23.8131 85.1634 23.6673 86.8417C23.4932 89.9263 22.8974 93.539 23.5707 96.6008C23.2139 96.383 22.9584 96.0798 22.6016 95.862C24.0934 91.6671 24.9239 83.1905 23.5328 78.6598C23.8896 78.8775 24.06 79.0796 24.4168 79.2974C22.4747 81.1067 22.2724 85.5976 21.79 87.905C21.0078 91.5021 20.412 95.1148 19.7311 98.6264C19.5811 99.2712 18.7457 98.0741 18.7782 97.7012C19.1388 94.6322 19.6859 91.5789 19.86 88.4944C19.9897 87.0026 20.1193 85.5108 20.0624 84.0034C20.0421 83.1565 20.1634 79.5979 20.0135 80.2427C19.1095 83.0782 19.0571 86.9243 18.6113 89.8922C18.2507 92.9611 17.586 96.2863 17.5984 99.3866C17.3429 99.0834 16.9861 98.8656 16.6454 98.4613C17.3426 94.7632 17.6666 91.0338 17.8042 87.2888C17.8649 85.5095 17.4836 83.4113 17.8159 81.7487C18.2496 80.0007 17.6946 85.3073 17.5608 85.7657C17.196 87.8012 17.0178 89.8524 16.8395 91.9036C16.4627 95.159 15.8994 98.3987 15.9969 101.6C15.7415 101.297 15.3846 101.079 15.044 100.675C16.2438 95.5163 17.4353 88.2909 16.3969 82.9444C16.7537 83.1622 17.0092 83.4654 17.366 83.6832C16.442 89.9919 16.9088 96.5112 16.4593 102.766C16.2038 102.463 15.847 102.245 15.5063 101.841C15.786 99.704 15.9642 97.6528 16.3452 95.4308C16.4951 94.786 17.3305 95.9831 17.2981 96.3561C17.124 99.4407 18.3124 104.142 16.7637 106.83C16.6623 106.915 16.561 107.001 16.4758 106.899C13.7591 105.732 14.8413 100.846 14.9344 98.6934C15.0719 94.9483 15.1081 91.2887 15.1443 87.629C15.1523 85.3757 14.6817 82.1431 15.5208 80.0535C15.7722 79.3232 16.421 80.5047 16.49 80.7922C17.0457 84.1259 17.2974 87.7158 16.9206 90.9712C16.9044 91.1577 16.7868 91.4296 16.5151 91.3128C13.6605 89.5706 14.5762 81.1951 15.9911 78.9659C16.0924 78.8805 16.0924 78.8805 16.0924 78.8805C19.5511 79.0769 18.3596 86.3023 17.3663 88.0033C17.0461 88.446 16.4824 87.3656 16.4986 87.1792C15.9104 84.2184 17.1305 79.9068 17.5763 76.9389C17.7263 76.2941 18.5616 77.4912 18.5292 77.8642C18.4848 79.457 18.3551 80.9487 17.9376 82.5103C17.7877 83.1551 16.9523 81.958 16.9847 81.5851C17.1671 80.5673 17.4022 80.0235 18.2131 79.3403C18.4158 79.1694 18.7564 79.5737 18.8416 79.6748C22.5237 84.8674 20.4648 95.5888 18.1297 100.84C17.7932 101.469 17.2295 100.389 17.1605 100.101C16.4465 95.3454 18.5261 89.7911 19.4908 85.1763C19.6408 84.5315 20.4761 85.7286 20.4437 86.1015C20.0141 88.883 19.1264 91.532 18.6968 94.3134C18.4413 94.0102 18.1007 93.606 17.8452 93.3028C18.5465 90.6381 19.0123 84.197 21.1246 82.5899C21.4287 82.3337 21.8221 83.2119 21.9072 83.313C23.3997 87.7584 21.608 93.2429 20.8461 97.6869C20.5906 97.3837 20.25 96.9795 19.9945 96.6763C20.5092 93.9959 21.3808 91.5334 21.5225 88.8217C21.5021 87.9748 22.4389 89.0865 22.4916 89.5605C22.4351 92.3732 21.3608 95.0066 20.9312 97.788C20.7812 98.4328 19.9459 97.2357 20.0796 96.7773C20.2782 95.5731 22.321 85.0382 21.3884 84.9599C21.2019 84.9443 19.1184 93.7853 18.8671 94.5155C18.7171 95.1603 17.8818 93.9632 18.0155 93.5049C18.5303 90.8246 19.418 88.1755 19.8314 85.5806C20.0869 85.8838 20.4437 86.1015 20.7843 86.5058C19.9535 90.6623 17.8576 96.403 18.604 100.786C18.2472 100.568 17.9918 100.265 17.6349 100.047C18.5592 98.0585 19.0578 95.5646 19.5239 93.4437C20.0224 90.9498 20.2493 88.3392 20.0017 85.7827C19.8638 85.2076 19.8111 84.7336 19.7745 84.0732C20.0907 82.597 19.6649 82.0917 18.5134 82.3708C18.2579 82.0676 17.9011 81.8498 17.5605 81.4455C17.8118 80.7153 18.0873 77.5453 18.1359 76.9859C18.3913 77.2891 18.7482 77.5069 19.0888 77.9111C18.6592 80.6925 17.3701 84.7166 17.9745 87.4909C17.719 87.1877 17.3622 86.9699 17.1067 86.6667C17.3581 85.9365 17.6094 85.2063 17.6742 84.4604C17.3336 84.0561 16.8916 83.7373 16.551 83.333C16.0442 83.7601 16.462 86.5187 16.4986 87.1792C16.5717 88.5001 16.6286 90.0075 16.6365 87.7542C16.5755 85.2134 16.4131 82.758 16.0642 80.2869C16.421 80.5047 16.6765 80.8079 17.0333 81.0256C16.1942 83.1153 16.681 86.1614 16.7744 88.3293C16.7868 91.4296 16.6978 94.6152 16.7103 97.7155C16.6982 98.9353 16.4834 100.326 16.5565 101.647C16.593 102.307 16.5041 105.493 17.0554 103.473C17.6229 101.267 16.9819 97.8322 17.0912 95.4935C17.3467 95.7967 17.7035 96.0144 18.0442 96.4187C17.6794 98.4542 17.4849 100.692 17.2053 102.828C17.0554 103.473 16.22 102.276 16.2524 101.903C16.7182 95.4622 16.2514 88.9428 17.0902 82.5331C17.155 81.7872 17.9904 82.9843 18.0593 83.2718C19.1667 88.9057 17.9752 96.1312 16.743 101.663C16.4917 102.393 15.859 101.025 15.7901 100.737C15.5098 94.2338 16.5796 86.2468 18.351 79.9153C18.4848 79.457 18.9106 79.9623 18.9957 80.0634C20.0014 81.4626 19.588 84.0575 19.5435 85.6503C19.5277 90.1569 19.1388 94.6322 18.3769 99.0762C18.2269 99.721 17.3915 98.524 17.4239 98.151C17.375 94.3903 18.1734 90.6068 18.684 86.893C19.0609 83.6376 19.3687 80.0947 20.4754 77.0883C20.7106 76.5446 21.2905 77.4385 21.2743 77.625C23.0629 84.0674 21.1943 91.5177 20.3555 97.9275C20.1 97.6243 19.7432 97.4065 19.4025 97.0023C20.1321 92.9312 20.8616 88.8602 21.7776 84.8048C22.2599 82.4974 22.4502 79.2263 24.2909 77.5025C24.6964 77.1608 25.0046 77.938 25.1749 78.1402C26.7202 83.0595 25.991 91.4507 24.3492 96.2904C24.0979 97.0207 23.449 95.8392 23.3801 95.5517C22.0172 89.6146 23.8696 82.3507 24.2017 76.368C24.2827 75.4357 25.118 76.6327 25.1708 77.1067C25.3011 84.2552 25.0098 91.9319 23.1898 98.8228C22.9384 99.553 22.3058 98.1851 22.2368 97.8976C21.9728 91.2074 22.9291 84.5257 23.3259 77.7971C23.407 76.8648 24.2423 78.0619 24.2951 78.5359C24.543 85.4125 23.9476 93.3454 22.1438 100.05C21.8924 100.78 21.2598 99.4121 21.1908 99.1246C20.9716 95.1617 20.8374 91.2999 20.8047 87.3527C20.7843 86.5058 20.3503 83.9337 20.9909 83.0483C20.5692 83.5764 20.7723 87.7257 20.7075 88.4716C20.4644 91.2686 21.1946 95.8379 20.0352 98.3702C19.346 99.815 20.0876 94.524 20.1362 93.9646C20.3306 91.727 20.152 89.458 19.8721 87.2745C19.7828 86.14 19.9569 83.0554 19.1743 82.3323C18.0511 81.205 18.5661 82.8448 18.4851 83.7771C17.9218 87.0169 18.0031 90.4047 17.6263 93.6601C17.5453 94.5924 17.1119 100.661 17.286 97.5759C17.4601 94.4914 17.7356 91.3214 17.5367 88.2055C17.7921 88.5086 18.149 88.7264 18.4896 89.1307C18.1938 91.4537 17.8818 93.9633 17.6711 96.3874C17.5739 97.5062 18.0121 101.112 17.3877 101.811C17.708 101.368 17.7159 99.1147 17.7483 98.7417C17.797 98.1823 18.1007 93.606 18.1414 95.2999C18.1821 96.9937 17.8335 98.8428 17.7728 100.622C17.7608 101.842 17.3474 104.437 18.4703 101.244C18.6041 100.786 19.5363 96.5439 19.1715 98.5794C18.7744 100.988 17.7649 102.875 18.2841 105.549C18.0286 105.245 17.7732 104.942 17.5177 104.639C19.3463 104.135 19.6542 100.592 18.9488 102.223C18.4624 103.497 17.607 105.774 17.9518 107.211C17.5949 106.993 17.4246 106.791 17.0678 106.574C19.0098 104.764 19.9948 100.996 19.9338 98.4556C20.1893 98.7588 20.5299 99.163 20.7854 99.4662C20.1772 99.9787 19.0543 103.171 19.5449 102.931C20.0355 102.69 20.5178 100.383 20.6516 99.9246C21.7866 95.5119 20.5461 98.9766 20.6354 100.111C20.3799 99.8078 20.1245 99.5047 19.869 99.2015C20.834 98.9068 21.2839 96.9723 21.738 96.0713C21.9731 95.5275 22.7071 96.81 22.5733 97.2684C22.172 98.6434 21.0126 101.176 21.4425 102.714C21.0857 102.497 20.9154 102.295 20.5585 102.077C20.7775 101.72 21.0126 101.176 21.2315 100.818C24.2323 105.203 25.2866 106.042 24.4795 103.439C24.5726 101.287 22.663 102.723 23.0605 104.635C22.805 104.331 22.4482 104.114 22.1927 103.811C23.7617 101.97 23.8303 97.9374 22.9908 95.7069C23.3477 95.9246 23.518 96.1268 23.8748 96.3445C22.7802 98.131 22.4399 102.047 23.1091 104.075C24.342 107.184 25.4487 104.178 25.9148 102.057C26.0972 101.039 26.6278 93.852 25.5979 94.8926C24.3654 96.104 23.8752 100.665 24.3902 102.304C24.8364 103.657 24.9053 103.944 25.781 102.515C26.3364 101.529 26.3971 99.7494 26.5795 98.7316C26.7133 98.2732 27.017 93.6969 26.5588 93.5645C26.2871 93.4478 26.6602 93.4791 26.3926 94.3958C25.9751 95.9573 25.9144 97.7366 25.7686 99.4149C25.5376 100.992 25.5297 103.245 25.3794 99.57C25.3021 97.2157 25.6142 94.7061 25.5369 92.3518C25.3663 87.8295 24.8312 89.6629 24.4868 92.5454C24.4058 93.4777 23.4373 101.379 25.278 99.6554C27.0011 98.2035 26.2702 84.994 26.0837 84.9783C25.0336 85.1719 25.0629 96.726 25.3225 98.0626C24.9657 97.8448 24.7953 97.6427 24.4385 97.4249C25.4683 96.3844 25.4925 93.9446 25.7924 92.655C26.3233 89.7881 26.7529 87.0067 26.8095 84.194C26.8012 82.1272 26.7684 78.18 26.635 82.9585C26.5095 85.4837 25.9786 88.3505 26.3275 90.8215C25.9706 90.6038 25.7152 90.3006 25.3583 90.0828C26.3313 87.5348 26.777 84.567 27.3931 81.8012C27.5431 81.1564 29.0187 77.1479 27.5955 77.3102C26.3588 77.4882 26.5864 83.5179 26.5174 83.2304C26.1606 83.0126 25.9903 82.8104 25.6335 82.5927C26.1727 81.7927 26.6429 80.7052 26.9956 79.8895C28.1713 77.1707 32.9066 70.2428 26.825 75.3673C26.5857 74.8776 26.4316 74.489 26.2937 73.914C26.9708 73.689 27.7493 73.3787 28.4264 73.1538C28.6657 73.6434 28.8198 74.032 29.059 74.5217C28.9253 74.98 28.7064 75.3373 28.5726 75.7957C28.5402 76.1686 28.5078 76.5416 28.5767 76.8291C28.504 79.8283 28.6377 79.3699 28.9942 75.2676C28.7064 75.3373 28.3171 75.4925 28.1144 75.6633C26.7684 78.18 27.4214 80.3948 30.1423 82.5954C31.2897 81.283 30.9977 80.3193 29.1811 79.6034C25.1667 76.0733 26.9108 84.1086 29.4814 82.6339C31.5613 81.3997 31.0056 78.066 29.4976 82.4474C28.8612 84.3662 26.0968 96.7189 30.5529 96.2476C32.7384 95.9615 33.5648 86.4515 30.285 92.8442C29.612 94.1025 28.4688 96.4484 28.4243 98.0412C32.074 103.607 33.1648 105.107 31.5955 102.627C31.3886 101.765 31.0156 101.734 30.748 102.65C32.7794 101.975 32.8442 101.23 31.1128 100.615C29.8355 99.0988 29.0408 99.5956 28.8301 102.02C29.5359 104.709 31.3155 100.444 31.4655 99.7991C31.964 97.3052 31.8017 94.8498 30.9784 92.4328C30.1147 92.642 29.1497 92.9367 28.3712 93.247C28.0713 94.5367 28.5336 95.7025 29.3852 96.7131C29.823 95.9985 30.0744 95.2683 30.5122 94.5537C31.2338 92.736 35.008 82.816 32.4453 82.0374C32.2102 82.5811 31.6789 81.1278 32.4088 81.3769Z" fill="white"/>
<path d="M24.6356 78.94C23.6016 78.9472 22.8597 79.918 22.4218 80.6326C22.0853 81.2617 21.2258 82.5044 21.161 83.2503C20.9056 82.9471 20.5649 82.5429 20.4108 82.1543C21.392 81.6731 22.065 80.4148 22.6042 79.6148C23.1596 78.6283 23.9826 76.7252 23.7919 75.6761C23.9419 75.0313 23.654 75.1011 23.0986 76.0875C22.8797 76.4448 22.6608 76.8021 22.4418 77.1594C22.1054 77.7885 21.7689 78.4177 21.6189 79.0625C21.4851 79.5209 21.25 80.0646 21.2014 80.624C20.7959 80.9657 20.7959 80.9657 21.3027 80.5386C21.4041 80.4532 21.5055 80.3678 21.5217 80.1813C22.2636 79.2105 22.6811 77.649 22.9648 76.5459C23.1148 75.901 23.0783 75.2406 23.0579 74.3936C22.989 74.1061 23.0214 73.7331 23.139 73.4613C23.3093 73.6634 23.3782 73.9509 23.1755 74.1217C22.8228 74.9374 22.385 75.652 22.1174 76.5687C21.9836 77.027 21.4 79.4198 21.6392 79.9095C21.4689 79.7073 21.2986 79.5052 21.0269 79.3885C21.9595 79.4668 22.3081 77.6177 22.5432 77.074C22.6608 76.8021 23.1107 74.8676 22.9404 74.6655C22.5146 74.1602 21.7606 76.3509 21.643 76.6228C21.3755 77.5394 21.0917 78.6426 21.0107 79.575C20.7552 79.2718 20.4146 78.8675 20.1592 78.5643C20.597 77.8498 20.7632 77.0185 21.0307 76.1018C21.1483 75.8299 21.0104 75.2548 21.351 75.6591C21.6065 75.9623 21.2862 76.405 21.0673 76.7623C20.8159 77.4925 20.5484 78.4092 20.5687 79.2561C20.6215 79.7301 20.3336 79.7999 20.739 79.4583C21.0431 79.202 21.1931 78.5572 21.3269 78.0989C21.4444 77.827 21.9106 75.7061 21.7402 75.5039C21.1279 74.983 19.9078 79.2946 19.843 80.0405C19.5875 79.7373 19.2469 79.333 18.9914 79.0298C19.701 78.432 20.1874 77.158 20.2684 76.2256C20.4226 76.6142 20.678 76.9174 20.8321 77.306C20.2036 76.9715 18.7077 80.133 18.3874 80.5757C17.9658 81.1038 17.4345 79.6505 17.552 79.3786C17.7182 78.5473 17.9696 77.8171 18.3222 77.0015C18.6629 77.4057 18.817 77.7943 19.1576 78.1985C18.9549 78.3694 18.8373 78.6412 18.6346 78.8121C18.3143 79.2548 17.5803 77.9723 17.7992 77.615C18.0344 77.0712 18.0182 77.2577 18.4236 76.9161C18.8291 76.5744 19.3765 77.8413 19.259 78.1131C18.9063 78.9288 18.5698 79.5579 18.4888 80.4903C18.1481 80.086 17.8927 79.7829 17.6534 79.2932C18.1926 78.4932 19.4007 75.4015 20.6739 75.884C21.0307 76.1018 21.27 76.5914 21.2376 76.9644C21.2417 77.9978 20.6377 79.5437 19.8268 80.2269C19.32 80.654 18.9428 79.5893 18.9752 79.2163C18.9873 77.9964 19.8344 73.6535 21.5982 73.8954C23.4634 74.052 22.6973 77.4626 22.5149 78.4803C22.3325 79.4981 20.9542 82.3877 20.0133 80.2426C19.2955 78.7736 20.0778 75.1766 21.2941 74.1517C21.3955 74.0663 21.4968 73.9809 21.582 74.0819C23.4837 74.8989 21.9554 78.4334 21.2986 79.5052C20.9783 79.9479 20.4308 78.6811 20.447 78.4946C20.5767 77.0028 20.9576 74.7808 21.732 73.4371C22.3887 72.3652 23.3375 72.257 23.9864 73.4385C24.619 74.8064 23.914 80.7578 21.8785 80.3991C21.692 80.3835 21.4365 80.0803 21.2662 79.8782C20.8039 78.7124 22.1778 70.4692 24.0674 72.5061C24.4932 73.0114 24.4446 73.5708 24.4811 74.2313C24.4691 75.4512 24.4732 76.4846 24.1732 77.7743C23.9057 78.691 23.0221 82.3734 21.461 81.9606C18.8821 81.3685 22.255 72.8236 24.3432 73.6563C25.8029 74.1544 25.1869 76.9202 24.9193 77.8369C24.4694 79.7713 23.3951 82.4047 21.5341 83.2816C21.0435 83.5222 20.6663 82.4574 20.7839 82.1856C20.8811 81.0667 21.7406 79.8241 22.3812 78.9387C23.0217 78.0533 23.7637 77.0825 24.8828 77.1764C24.749 77.6348 25.1951 78.987 24.6356 78.94Z" fill="white"/>
<path d="M16.4873 101.359C10.2105 100.081 3.32142 98.2821 3.52758 90.5044C3.64894 86.9458 7.11554 84.8889 9.88883 83.2434C12.0702 81.9238 16.822 79.1295 19.4698 80.0091C19.7415 80.1258 20.1511 80.8176 20.0173 81.276C19.916 81.3614 20.0011 81.4624 19.8998 81.5478C19.5633 82.177 18.7279 80.9799 19.0482 80.5372C19.1496 80.4518 19.0644 80.3507 19.1658 80.2653C19.3199 80.6539 19.474 81.0425 19.7132 81.5322C18.44 81.0497 16.0722 82.3536 15.0058 82.7337C12.8731 83.4938 10.708 84.6269 8.81455 85.8767C7.71578 86.6298 6.51566 87.4682 5.67236 88.5244C4.94663 89.3087 4.59394 90.1244 4.58187 91.3442C5.70926 93.505 6.83664 95.6658 8.04918 97.9276C10.174 99.4207 13.6326 99.6171 16.1263 100.108C16.6007 100.054 16.9455 101.492 16.4873 101.359Z" fill="white"/>
<path d="M134.446 37.9114L134.531 38.0124C134.888 38.2302 135.297 38.922 135.078 39.2793C134.203 40.7084 132.986 41.7333 131.754 42.9447C131.247 43.3717 130.708 44.1717 129.962 44.1091C129.589 44.0778 129.179 43.386 129.212 43.0131C129.357 41.3348 130.793 39.9526 131.839 38.7256C132.682 37.6694 134.097 35.4403 135.435 35.1769C135.909 35.1228 136.303 36.0011 136.27 36.374C135.666 37.9199 134.519 39.2323 133.473 40.4593C132.309 41.9582 131.215 43.7447 129.966 45.1425C129.459 45.5696 128.997 44.4038 129.131 43.9454C129.499 42.9433 130.428 41.9882 130.967 41.1882C132.046 39.5882 133.379 38.2914 134.442 36.8779C134.762 36.4352 135.496 37.7177 135.277 38.075C134.199 39.675 133.035 41.1739 131.871 42.6728C131.45 43.2009 130.817 41.833 131.036 41.4757C131.709 40.2174 132.637 39.2622 133.566 38.3071C134.174 37.7946 134.612 37.0801 135.476 36.8708C135.763 36.801 136.072 37.5782 136.141 37.8658C136.623 39.8785 133.534 43.0002 131.62 43.403C131.044 43.5425 130.513 42.0892 130.987 42.0351C132.325 41.7718 135.569 39.0387 135.24 37.4146C135.496 37.7177 135.751 38.0209 135.905 38.4095C135.143 38.5334 134.182 39.8615 133.676 40.2885C132.95 41.0728 132.224 41.8572 131.77 42.7582C131.429 42.354 131.275 41.9654 130.935 41.5611C132.098 40.0622 133.262 38.5633 134.34 36.9633C134.681 37.3676 134.835 37.7562 135.176 38.1604C134.215 39.4885 132.982 40.6999 132.021 42.028C131.381 42.9134 130.148 44.1248 129.881 45.0414C129.54 44.6372 129.285 44.334 129.045 43.8444C130.278 42.633 131.17 41.0174 132.131 39.6893C133.193 38.2758 134.628 36.8936 135.334 35.2623C135.674 35.6666 135.828 36.0552 136.169 36.4594C135.119 36.653 133.923 38.5249 133.197 39.3092C132.252 40.4508 130.412 42.1746 130.181 43.7518C129.925 43.4486 129.771 43.06 129.43 42.6558C130.075 42.8038 131.239 41.3049 131.644 40.9633C132.573 40.0081 133.4 39.1384 134.057 38.0665C134.211 38.4551 134.45 38.9448 134.604 39.3334L134.519 39.2323C134.162 39.0145 133.817 37.5769 134.446 37.9114Z" fill="white"/>
<path d="M136.351 35.4417C137.389 36.468 136.785 38.0139 135.942 39.0701C135.083 40.3127 133.951 41.4387 132.922 42.4793C132.313 42.9917 131.385 43.9469 130.623 44.0707C130.148 44.1248 129.925 43.4487 129.856 43.1611C129.39 40.9619 134.506 31.812 136.299 34.9677C137.033 36.2502 135.954 37.8502 135.196 39.0074C134.203 40.7085 132.654 43.396 130.623 44.0707C130.234 44.2259 129.925 43.4487 129.856 43.1611C129.73 41.3662 131.977 39.3007 132.937 37.9726C133.663 37.1883 135.062 35.1457 136.185 36.273C138.432 38.5277 132.569 43.2949 131.438 44.4209C131.032 44.7625 130.298 43.48 130.602 43.2238C132.257 41.4843 134.284 39.7761 135.512 37.5313C136.169 36.4595 134.92 37.8573 134.701 38.2146C134.195 38.6416 133.858 39.2708 133.436 39.7989C132.913 40.4124 132.476 41.127 131.953 41.7405C131.632 42.1832 130.805 43.0529 130.858 43.5269C130.602 43.2238 130.347 42.9206 130.091 42.6174C132.224 41.8572 134.296 38.5562 135.236 36.3812C135.338 36.2958 135.573 35.752 135.589 35.5656C135.52 35.278 135.488 35.651 135.285 35.8218C134.592 36.2332 134.069 36.8467 133.631 37.5613C132.569 38.9748 130.647 41.6309 130.959 43.4415C130.704 43.1384 130.448 42.8352 130.193 42.532C131.328 42.4394 132.508 40.7541 133.436 39.7989C133.959 39.1854 134.568 38.6729 135.091 38.0594C135.192 37.974 136.084 36.3584 136.169 36.4595C135.743 35.9542 135.755 34.7343 136.351 35.4417Z" fill="white"/>
<path d="M148.982 82.52C148.88 82.6054 148.779 82.6909 148.763 82.8773C148.523 82.3877 148.369 81.9991 148.13 81.5094C151.131 81.5734 154.025 80.6894 157.058 80.3804C158.194 80.2879 160.614 79.458 161.45 80.6551C161.535 80.7561 161.843 81.5333 161.454 81.6885C157.103 83.1078 152.136 82.9726 147.838 84.8659C147.599 84.3762 147.445 83.9876 147.307 83.4126C149.306 83.1108 151.337 82.436 153.336 82.1342C155.437 81.747 157.606 81.6473 159.706 81.2601C159.86 81.6487 159.998 82.2237 160.152 82.6123C157.78 82.8828 155.648 83.643 153.345 84.201C151.329 84.6893 149.33 84.9911 147.486 85.6815C147.246 85.1919 147.092 84.8033 146.954 84.2282C150.563 83.7797 154.241 83.6188 157.934 83.2714C158.409 83.2173 158.94 84.6707 158.381 84.6237C155.246 85.018 152.161 84.853 149.01 85.4338C148.536 85.4879 147.988 84.2211 148.479 83.9805C150.409 83.3911 152.44 82.7164 154.37 82.1271C155.047 81.9021 157.809 81.4765 157.975 80.6452C158.129 81.0338 158.283 81.4224 158.522 81.912C155.96 81.1335 151.605 81.5193 149.221 83.0097C148.982 82.52 148.827 82.1314 148.588 81.6418C151.398 80.6567 154.378 79.8738 157.188 78.8887C157.427 79.3783 157.581 79.7669 157.719 80.342C154.297 80.8061 151.029 81.6588 147.745 82.698C147.169 82.8375 146.537 81.4696 147.112 81.3301C150.397 80.2909 153.851 79.4539 157.273 78.9897C157.748 78.9356 158.295 80.2025 157.804 80.4431C154.995 81.4281 152.116 82.1257 149.205 83.1962C148.714 83.4367 148.081 82.0688 148.572 81.8283C150.972 80.1514 155.599 79.8823 158.246 80.7619C158.705 80.8943 158.928 81.5704 158.794 82.0288C158.612 83.0465 156.613 83.3483 155.749 83.5576C153.531 84.2167 151.212 84.9612 148.994 85.6203C148.755 85.1306 148.601 84.742 148.463 84.167C151.613 83.5861 154.784 83.8523 157.833 83.3568C157.987 83.7454 158.125 84.3205 158.279 84.7091C154.585 85.0565 151.009 85.132 147.299 85.6659C146.825 85.72 146.277 84.4531 146.768 84.2125C148.901 83.4524 151.273 83.1819 153.49 82.5228C155.506 82.0345 157.436 81.4452 159.536 81.058C160.01 81.0039 160.643 82.3718 159.982 82.4102C157.882 82.7974 155.712 82.8971 153.612 83.2843C151.613 83.5861 149.582 84.2609 147.583 84.5627C147.108 84.6168 146.561 83.3499 147.052 83.1094C151.248 81.3015 156.316 81.3512 160.667 79.932C160.635 80.3049 160.704 80.5925 160.671 80.9654C160.586 80.8643 156.588 81.468 156.012 81.6075C153.539 81.9634 151.033 82.6922 148.507 82.5741C148.033 82.6282 147.656 81.5635 147.875 81.2062C147.976 81.1208 148.077 81.0354 148.093 80.8489C148.381 80.7792 149.302 82.0773 148.982 82.52Z" fill="white"/>
<path d="M149.666 122.21C148.526 121.269 147.285 120.414 146.13 119.659C144.99 118.718 143.814 117.117 142.557 116.448C142.286 116.331 142.079 115.469 141.71 116.471C141.459 117.201 144.382 119.231 144.994 119.752C146.15 120.506 147.748 121.58 149.139 121.79C149.191 122.264 149.345 122.653 149.398 123.127C148.174 122.085 146.933 121.229 145.591 120.459C144.435 119.705 143.429 118.306 142.071 117.722C142.188 117.45 142.29 117.365 142.407 117.093C143.247 119.323 147.594 121.191 149.666 122.21C149.82 122.599 149.787 122.972 149.84 123.446C148.429 122.388 147.103 121.431 145.692 120.374C145.08 119.853 144.552 119.433 143.94 118.912C143.94 118.912 142.732 117.684 143.056 118.274C143.79 119.557 145.793 120.289 146.815 121.501C146.985 121.703 147.464 122.683 146.904 122.636C146.158 122.573 145.53 122.239 144.918 121.718C143.405 120.745 141.893 119.773 140.498 118.529C140.7 118.358 140.818 118.087 140.919 118.001C140.988 118.289 141.702 118.724 141.872 118.926C142.74 119.751 143.794 120.59 144.763 121.329C146.004 122.185 147.229 123.226 148.267 124.253C148.437 124.455 148.9 125.621 148.255 125.473C146.625 124.772 145.23 123.528 143.819 122.471C142.935 121.833 142.152 121.11 141.284 120.286C140.928 120.068 140.076 119.057 139.618 118.925C139.16 118.793 138.714 117.44 139.172 117.573C140.275 117.853 141.11 119.05 142.079 119.789C143.831 121.251 145.822 123.202 147.995 124.136C147.963 124.509 147.93 124.882 147.983 125.356C146.264 123.521 144.022 122.3 142.286 120.652C141.503 119.928 140.449 119.089 140.072 118.024C140.003 117.736 140.068 116.991 140.494 117.496C141.548 118.336 142.602 119.175 143.673 119.829C144.471 120.365 145.424 121.291 146.458 121.283C146.426 121.656 146.479 122.13 146.548 122.418C145.424 121.291 141.467 119.268 141.73 117.318C141.896 116.487 142.456 116.534 143.084 116.868C143.985 117.319 144.836 118.33 145.619 119.053C147.115 120.212 148.441 121.168 149.666 122.21C150.023 122.428 150.554 123.881 149.925 123.547C146.937 122.263 142.793 120.225 141.576 116.929C141.507 116.642 141.454 116.168 141.913 116.3C143.186 116.783 143.936 117.879 144.99 118.718C146.401 119.776 147.914 120.748 149.41 121.907C149.581 122.109 150.229 123.29 149.67 123.243C147.448 122.869 144.609 120.94 143.044 119.494C141.564 118.149 140.506 116.276 140.769 114.326C140.87 114.24 140.887 114.054 140.972 114.155C142.261 114.451 143.182 115.749 144.135 116.674C145.87 118.323 147.91 119.715 149.763 121.091C150.12 121.309 150.379 122.646 149.666 122.21Z" fill="white"/>
<path d="M126.986 147.542C127.667 148.35 127.667 148.35 128.247 149.244C128.332 149.345 128.709 150.41 128.251 150.278C126.775 149.966 125.907 149.142 124.752 148.388C122.457 146.692 120.263 144.912 117.85 143.488C117.408 143.169 117.051 142.952 116.508 142.718C115.949 142.671 115.932 142.858 116.374 143.177C116.395 144.023 118.418 145.602 119.014 146.309C120.819 148.245 122.948 150.772 125.259 152.281C125.227 152.654 125.109 152.925 125.077 153.298C123.815 151.596 122.165 150.049 120.701 148.517C119.408 147.188 117.96 145.47 116.346 144.583C116.464 144.311 116.565 144.226 116.683 143.954C117.198 145.594 120.373 146.893 121.715 147.663C123.227 148.635 124.91 149.81 126.641 150.424C126.694 150.898 126.662 151.271 126.715 151.745C123.552 149.226 120.709 146.264 117.664 143.473C117.696 143.1 117.729 142.727 117.761 142.354C120.502 145.401 124.221 146.934 127.282 149.539C127.452 149.741 128.117 150.736 127.542 150.876C125.847 150.921 124.367 149.576 123.025 148.806C120.543 147.095 117.94 144.623 115.121 143.541C114.663 143.409 114.233 141.87 114.862 142.204C116.95 143.037 118.686 144.685 120.454 145.961C122.222 147.236 124.724 149.794 126.994 149.609C127.047 150.083 127.201 150.471 127.254 150.945C124.107 148.24 120.304 146.606 117.477 143.457C117.222 143.154 116.962 141.817 117.574 142.338C120.535 145.028 123.361 148.177 126.625 150.611C126.897 150.728 127.428 152.181 126.698 151.932C124.237 151.068 122.043 149.287 119.817 147.88C118.22 146.806 116.233 145.888 115.649 143.961C115.58 143.673 115.628 143.114 115.985 143.332C117.514 144.117 118.893 145.548 120.101 146.776C122.007 148.627 123.998 150.578 125.6 152.685C125.77 152.887 126.046 154.037 125.417 153.703C122.563 151.96 120.279 149.045 118.049 146.604C116.756 145.275 114.679 143.222 114.756 141.256C114.773 141.07 114.789 140.883 114.975 140.899C116.723 141.327 118.304 142.587 119.817 143.559C122.112 145.255 124.955 148.217 127.805 148.926C127.773 149.299 127.74 149.671 127.809 149.959C127.469 149.555 127.229 149.065 126.803 148.56C126.378 148.054 126.39 146.835 126.986 147.542Z" fill="white"/>
<path d="M108.247 18.3383C108.255 20.4051 106.909 22.9218 106.001 24.7239C105.178 26.627 104.424 28.8177 102.802 30.1842C102.701 30.2696 102.344 30.0519 102.344 30.0519C100.965 28.6213 102.04 25.988 102.473 24.24C103.175 21.5753 104.581 17.2793 106.982 15.6024C107.184 15.4316 107.61 15.9369 107.594 16.1234C108.279 17.9653 106.731 20.6528 106.127 22.1987C105.523 23.7445 104.302 28.0562 102.729 28.8633C102.34 29.0184 102.117 28.3423 101.947 28.1402C101.363 26.2129 102.303 24.0378 103.211 22.2357C104.002 20.7055 105.258 17.0544 107.002 16.4494C107.391 16.2942 107.699 17.0714 107.768 17.359C107.878 19.3404 107.055 21.2435 106.435 22.9759C105.596 25.0655 103.877 27.5508 103.581 29.8739C103.325 29.5707 102.985 29.1665 102.729 28.8633C103.264 27.0299 104.172 25.2278 105.166 23.5268C106.244 21.9268 107.168 19.9382 108.774 18.7582C109.179 18.4165 109.626 19.7688 109.609 19.9553C109.074 21.7887 108.065 23.6762 107.258 25.3928C106.569 26.8377 106.135 28.5856 105.089 29.8127C104.769 30.2554 104.12 29.0739 104.238 28.802C104.513 25.632 107.043 22.4634 108.49 19.8613C108.811 19.4186 109.545 20.7011 109.326 21.0584C108.45 22.4876 107.846 24.0334 106.97 25.4626C106.634 26.0918 106.297 26.7209 105.482 26.3708C103.868 25.484 105.36 21.2891 105.559 20.0849C105.709 19.4401 106.544 20.6372 106.512 21.0101C106.317 23.2477 105.332 27.0156 103.593 28.654C103.187 28.9957 102.794 28.1174 102.725 27.8299C102.413 26.0193 103.406 24.3182 103.653 22.5546C103.819 21.7233 104.671 22.7339 104.622 23.2933C104.391 24.8705 103.382 26.758 103.727 28.1957C103.471 27.8925 103.114 27.6747 102.859 27.3715C104.395 25.9039 105.364 22.3225 105.644 20.1859C105.899 20.4891 106.256 20.7069 106.597 21.1112C106.431 21.9424 106.264 22.7737 105.997 23.6904C105.831 24.5217 105.462 25.5238 106.135 24.2655C107.011 22.8364 107.7 21.3915 108.49 19.8613C108.831 20.2656 108.985 20.6542 109.326 21.0584C108.551 22.4022 107.607 23.5438 107.019 24.9032C106.346 26.1615 105.336 28.049 105.122 29.4397C104.866 29.1365 104.525 28.7323 104.27 28.4291C105.215 27.2875 105.9 24.8093 106.674 23.4655C107.363 22.0207 108.255 20.4051 108.673 18.8436C109.013 19.2478 109.167 19.6364 109.508 20.0407C108.105 21.0499 106.978 23.2093 106.102 24.6384C105.024 26.2384 104.319 27.8697 103.784 29.7031C103.532 30.4333 102.798 29.1508 102.932 28.6925C103.56 24.7068 107.546 21.003 107.156 16.838C107.412 17.1412 107.667 17.4444 107.922 17.7475C106.755 18.213 105.713 20.4735 105.243 21.561C104.249 23.262 102.498 26.1203 103.082 28.0476C102.826 27.7445 102.555 27.6277 102.299 27.3246C103.771 26.6028 104.639 23.1069 105.125 21.8329C105.595 20.7454 106.066 19.6578 106.349 18.5547C106.483 18.0963 107.274 16.5661 107.119 16.1775C107.29 16.3796 107.561 16.4964 107.732 16.6985C106.228 17.7931 105.255 20.3411 104.448 22.0578C103.844 23.6037 102.583 26.2214 102.81 27.9309C102.66 28.5757 102.762 28.4903 103.114 27.6747C103.435 27.232 103.654 26.8747 103.889 26.331C104.444 25.3445 104.914 24.257 105.385 23.1695C106.09 21.5382 107.42 19.208 107.395 17.3276C107.257 16.7526 108.194 17.8643 108.247 18.3383Z" fill="white"/>
<path d="M38.0778 91.8076C45.3276 90.5378 52.3828 91.5056 58.9396 94.9673C65.3098 98.4133 71.6638 102.046 78.9908 103.13C82.3319 103.599 87.7571 103.866 90.579 101.661C92.7117 100.901 93.2306 99.254 91.7626 96.689C92.9017 93.3097 91.9122 91.724 88.7941 91.9319C87.4033 91.7212 84.6745 91.774 83.3893 92.5113C79.059 94.7775 85.2789 94.5482 86.7873 94.487C88.6686 94.4571 90.5662 94.2407 92.2407 93.3481C95.6749 91.6641 99.6197 86.2664 92.39 84.063C91.0154 83.6659 89.1017 84.0688 87.6785 84.2311C86.4418 84.4091 82.9669 84.3992 82.1236 85.4554C81.0776 86.6824 82.3305 86.318 83.5509 86.3265C86.1784 86.3592 88.3921 84.6667 89.876 82.7251C90.7193 81.6689 91.3923 80.4105 91.7936 79.0355C92.8517 76.5886 92.3204 75.1352 90.0132 74.6599C82.1995 70.5292 76.6088 79.7333 70.8595 83.1952C65.5156 86.3155 58.278 86.3654 52.3459 86.525C46.2274 86.6689 40.194 86.9138 34.0755 87.0577C33.6011 87.1118 33.0698 85.6585 33.6293 85.7055C33.7307 85.62 33.8159 85.7211 33.9172 85.6357C34.3916 85.5816 34.9229 87.0349 34.3634 86.988C34.262 87.0734 34.1768 86.9723 34.0755 87.0577C33.9214 86.6691 33.7835 86.094 33.6293 85.7055C43.1376 85.4704 52.9703 85.8261 62.4055 84.27C64.9802 83.8287 67.9441 83.2323 70.2268 81.8273C72.3068 80.5931 73.892 78.5661 75.7165 77.0288C79.2479 74.2259 84.2187 71.0743 89.0885 72.3283C93.9584 73.5822 93.7601 79.1066 91.4695 82.7649C89.7181 85.6232 86.4746 88.3563 82.7604 87.8567C81.5561 87.6617 79.9788 87.4354 79.8368 85.8269C79.4634 81.4755 93.8901 81.935 96.1893 84.6637C100.362 89.6157 94.0614 95.0975 89.4026 95.7396C87.8781 95.9873 76.9952 95.8252 81.4875 91.6943C85.6595 88.0061 94.8072 90.84 95.6429 96.3572C97.2574 105.884 81.0669 105.183 75.7551 103.61C69.7986 101.889 64.7706 99.2133 59.2843 96.4049C52.8127 93.0443 45.944 92.0922 38.6943 93.362C38.0334 93.4005 37.5021 91.9472 38.0778 91.8076Z" fill="white"/>
</g>
<defs>
<clipPath id="clip0">
<rect width="129.645" height="139.704" fill="white" transform="matrix(-0.644365 -0.764718 -0.764718 0.644365 190.373 99.1422)"/>
</clipPath>
</defs>
</svg>
