<svg width="28" height="28" viewBox="0 0 28 28" fill="none" xmlns="http://www.w3.org/2000/svg">
<path d="M25.6117 19.6312C25.2145 19.4131 24.7159 19.5582 24.4978 19.9552C24.2797 20.3523 24.4247 20.851 24.8218 21.0691C25.7989 21.6059 26.3594 22.201 26.3594 22.7019C26.3594 23.3144 25.4915 24.2638 23.0555 25.0914C20.649 25.9091 17.433 26.3593 14 26.3593C10.567 26.3593 7.35098 25.9091 4.94446 25.0914C2.50852 24.2638 1.64062 23.3144 1.64062 22.7019C1.64062 22.201 2.20106 21.6059 3.17822 21.0691C3.5753 20.851 3.72034 20.3522 3.50219 19.9551C3.28404 19.5581 2.78545 19.413 2.38826 19.6312C1.29877 20.2297 0 21.2483 0 22.7019C0 23.8161 0.766281 25.4046 4.41667 26.6448C6.98873 27.5187 10.3922 27.9999 14 27.9999C17.6078 27.9999 21.0113 27.5187 23.5833 26.6448C27.2337 25.4046 28 23.8161 28 22.7019C28 21.2483 26.7012 20.2297 25.6117 19.6312Z" fill="#1ACEDF"/>
<path d="M7.80616 23.9056C9.47139 24.376 11.6709 24.6351 13.9994 24.6351C16.3279 24.6351 18.5274 24.3761 20.1927 23.9056C22.2299 23.3301 23.2629 22.497 23.2629 21.4296C23.2629 20.3622 22.2299 19.5292 20.1927 18.9537C19.7404 18.8259 19.2485 18.7139 18.7256 18.6183C18.4416 19.1089 18.1441 19.614 17.8329 20.1336C18.4118 20.2204 18.9552 20.3269 19.4487 20.4526C20.948 20.8345 21.4958 21.2644 21.6084 21.4297C21.4957 21.595 20.9481 22.0249 19.4487 22.4067C18.0297 22.7681 16.2039 22.9743 14.2809 22.9927C14.1878 22.9996 14.0939 23.0035 13.9994 23.0035C13.9049 23.0035 13.8111 22.9996 13.7179 22.9927C11.7949 22.9743 9.96911 22.7682 8.55002 22.4067C7.05071 22.0249 6.50301 21.5949 6.39041 21.4297C6.50301 21.2644 7.05076 20.8345 8.55007 20.4526C9.04357 20.3269 9.587 20.2204 10.1659 20.1336C9.85475 19.614 9.5572 19.1089 9.27321 18.6183C8.75029 18.7139 8.25837 18.8259 7.80616 18.9537C5.76889 19.5292 4.7359 20.3622 4.7359 21.4296C4.7359 22.497 5.76889 23.3301 7.80616 23.9056Z" fill="#1ACEDF"/>
<path d="M14.0009 21.3628C14.7312 21.3628 15.3945 20.9907 15.7754 20.3674C18.4447 16.0003 21.6266 10.2446 21.6266 7.62557C21.6266 3.42081 18.2057 0 14.0009 0C9.79612 0 6.37531 3.42081 6.37531 7.62557C6.37531 10.2446 9.55719 16.0003 12.2264 20.3674C12.6074 20.9907 13.2707 21.3628 14.0009 21.3628ZM10.9359 7.10199C10.9359 5.41198 12.3109 4.03703 14.0009 4.03703C15.691 4.03703 17.066 5.41198 17.066 7.10199C17.066 8.79205 15.691 10.167 14.0009 10.167C12.3109 10.167 10.9359 8.79211 10.9359 7.10199Z" fill="#1ACEDF"/>
</svg>
