<svg width="28" height="28" viewBox="0 0 28 28" fill="none" xmlns="http://www.w3.org/2000/svg">
<path d="M27.9871 9.57598C27.9828 9.53829 27.9763 9.50383 27.9645 9.46721C27.9537 9.43383 27.9386 9.40475 27.9214 9.37567C27.9042 9.3466 27.888 9.3186 27.8654 9.29167C27.8428 9.26367 27.8148 9.24106 27.7846 9.21844C27.7674 9.20444 27.7588 9.18721 27.7394 9.17644L16.1248 2.2066C14.9348 1.49152 13.0674 1.49152 11.8774 2.2066L0.262769 9.17644C0.244462 9.18721 0.233692 9.20444 0.217538 9.21844C0.187385 9.24106 0.159385 9.26367 0.135692 9.29167C0.113077 9.3186 0.0958462 9.34659 0.0796923 9.37675C0.0624615 9.40583 0.0473846 9.43706 0.0366154 9.46829C0.0247692 9.50383 0.0193846 9.53829 0.0150769 9.57706C0.00969231 9.59752 0 9.61583 0 9.63736V23.6374C0 25.1214 1.20831 26.3297 2.69231 26.3297H25.3077C26.7917 26.3297 28 25.1214 28 23.6374V9.63736C28 9.61583 27.9903 9.59752 27.9871 9.57598ZM12.4298 3.1306C13.2806 2.61906 14.7183 2.61906 15.5691 3.1306L26.9231 9.94213V9.96044L16.3692 16.2927L23.7914 20.7857C24.0455 20.9407 24.1274 21.2703 23.9745 21.5266C23.8722 21.6935 23.6945 21.7861 23.5125 21.7861C23.4177 21.7861 23.3218 21.7614 23.2346 21.7086L15.2202 16.8571C14.4523 17.1037 13.5509 17.1037 12.782 16.8571L4.76862 21.7086C4.68139 21.7614 4.58554 21.7861 4.49077 21.7861C4.30877 21.7861 4.13108 21.6935 4.02985 21.5266C3.87585 21.2724 3.95769 20.9418 4.21185 20.7857L11.634 16.2927L1.08015 9.96044V9.94213L12.4298 3.1306Z" fill="#1ACEDF"/>
</svg>
