<svg width="22" height="22" viewBox="0 0 22 22" fill="none" xmlns="http://www.w3.org/2000/svg">
<g clip-path="url(#clip0)">
<path d="M8.20753 20.0254C7.25618 20.0254 6.27696 19.9483 5.29187 19.7939C3.55684 19.5217 1.80049 18.6141 1.3035 18.3424L0 17.6297L1.41125 17.1656C2.95393 16.6584 3.89236 16.3437 5.05403 15.8509C3.89085 15.2876 2.99438 14.2743 2.56285 12.9644L2.23454 11.9677L2.50377 12.0089C2.24847 11.7515 2.04689 11.4904 1.89062 11.2529C1.33488 10.4088 1.04065 9.37736 1.10326 8.49347L1.16502 7.62353L1.68585 7.82528C1.46614 7.41036 1.30736 6.96724 1.21404 6.50281C0.986603 5.37018 1.17694 4.16689 1.75014 3.11466L2.20383 2.2818L2.81059 3.0106C4.72958 5.3158 7.16017 6.68325 10.045 7.08356C9.92712 6.27135 10.0154 5.48751 10.3076 4.7849C10.6479 3.96682 11.2531 3.27311 12.0574 2.77863C12.9507 2.2296 14.034 1.96357 15.1077 2.02953C16.2469 2.09952 17.2812 2.52636 18.1026 3.26472C18.5038 3.16048 18.7993 3.0492 19.1988 2.89881C19.4392 2.80834 19.7117 2.70562 20.0528 2.58813L21.3096 2.15508L20.4901 4.49587C20.5441 4.49134 20.5998 4.48748 20.6581 4.48496L22.0002 4.4242L21.2069 5.50832C21.1614 5.57042 21.1499 5.58805 21.1337 5.61239C21.0698 5.70873 20.9902 5.82857 19.9014 7.28246C19.6288 7.64652 19.4927 8.12069 19.5181 8.61785C19.6146 10.5071 19.3828 12.2165 18.8287 13.6982C18.3047 15.1001 17.4926 16.3029 16.4154 17.2732C15.0824 18.4736 13.3826 19.2956 11.3631 19.7159C10.3724 19.922 9.30861 20.0254 8.20753 20.0254V20.0254Z" fill="white"/>
</g>
<defs>
<clipPath id="clip0">
<rect width="22.0001" height="22" fill="white"/>
</clipPath>
</defs>
</svg>
